/* XPM */
static char *_2658e2d36cd434da6e5277ee1ab0976B6Fgk5MwNiIxO54p[] = {
/* columns rows colors chars-per-pixel */
"50 50 244 2 ",
"   c #070D08",
".  c #06161C",
"X  c #15140B",
"o  c #231E0A",
"O  c #1A2418",
"+  c #292B19",
"@  c #322B13",
"#  c #363214",
"$  c #051622",
"%  c #091723",
"&  c #051924",
"*  c #0A1B24",
"=  c #051C2A",
"-  c #0A1D2A",
";  c #141D29",
":  c #081E30",
">  c #06212F",
",  c #0C212D",
"<  c #0E2B25",
"1  c #12232D",
"2  c #1D2A2C",
"3  c #172528",
"4  c #042232",
"5  c #0C2333",
"6  c #092938",
"7  c #132532",
"8  c #132A35",
"9  c #1B2C33",
"0  c #142C3B",
"q  c #1C2E3B",
"w  c #152639",
"e  c #0A343B",
"r  c #1B323D",
"t  c #193639",
"y  c #1B322C",
"u  c #242B25",
"i  c #2A352A",
"p  c #383A25",
"a  c #243334",
"s  c #2C3535",
"d  c #26383A",
"f  c #353C3A",
"g  c #202F32",
"h  c #493E1D",
"j  c #423D2A",
"k  c #394539",
"l  c #344332",
"z  c #534B2A",
"x  c #474B38",
"c  c #4B523B",
"v  c #585439",
"b  c #4E4B2D",
"n  c #635C3C",
"m  c #6F5B35",
"M  c #6F683C",
"N  c #42421E",
"B  c #152D42",
"V  c #023C4A",
"C  c #0A3646",
"Z  c #1B3442",
"A  c #143C45",
"S  c #1C3B43",
"D  c #1C3C4C",
"F  c #173748",
"G  c #16374B",
"H  c #223442",
"J  c #223A45",
"K  c #243D4A",
"L  c #2A3C48",
"P  c #233E51",
"I  c #293444",
"U  c #05464E",
"Y  c #13424D",
"T  c #1C434C",
"R  c #174448",
"E  c #0B4654",
"W  c #0B4C5B",
"Q  c #074B57",
"!  c #144552",
"~  c #1D4452",
"^  c #184C58",
"/  c #08515D",
"(  c #16535C",
")  c #15504E",
"_  c #24434C",
"`  c #2C434C",
"'  c #2C4A4D",
"]  c #234448",
"[  c #354849",
"{  c #234352",
"}  c #2B4452",
"|  c #234A54",
" . c #244B5B",
".. c #2B4C5B",
"X. c #294856",
"o. c #314352",
"O. c #344B54",
"+. c #324C5A",
"@. c #394D5A",
"#. c #23525D",
"$. c #29565B",
"%. c #38555A",
"&. c #0C5462",
"*. c #0A5A65",
"=. c #065663",
"-. c #1B5964",
";. c #185764",
":. c #2D5463",
">. c #2C5A65",
",. c #285B68",
"<. c #335463",
"1. c #335B65",
"2. c #3C5B65",
"3. c #335C6A",
"4. c #3C5D6C",
"5. c #385566",
"6. c #3A5F71",
"7. c #2E4B61",
"8. c #0E626B",
"9. c #186469",
"0. c #1B6972",
"q. c #25656D",
"w. c #3B656C",
"e. c #38666A",
"r. c #266B75",
"t. c #2B6874",
"y. c #336573",
"u. c #3B6372",
"i. c #336C7A",
"p. c #3B6E7B",
"a. c #386975",
"s. c #277579",
"d. c #3C747C",
"f. c #35767D",
"g. c #2E706F",
"h. c #444948",
"j. c #4A5547",
"k. c #5A5947",
"l. c #464E56",
"z. c #42555E",
"x. c #48595A",
"c. c #545A56",
"v. c #534D41",
"b. c #675F50",
"n. c #5B665B",
"m. c #4F6454",
"M. c #676449",
"N. c #756C4A",
"B. c #7A714B",
"V. c #676858",
"C. c #736C57",
"Z. c #6C7258",
"A. c #787657",
"S. c #435D6B",
"D. c #4A5C67",
"F. c #44626C",
"G. c #4A6769",
"H. c #556765",
"J. c #59756A",
"K. c #436373",
"L. c #4B6472",
"P. c #4B667A",
"I. c #4C6C7B",
"U. c #466B77",
"Y. c #546977",
"T. c #46757B",
"R. c #56737A",
"E. c #4F746C",
"W. c #666B66",
"Q. c #726C64",
"!. c #697466",
"~. c #7A7866",
"^. c #647579",
"/. c #737972",
"(. c #8E783F",
"). c #877749",
"_. c #887B57",
"`. c #8A7649",
"'. c #857C66",
"]. c #6E8675",
"[. c #7A8571",
"{. c #7E845E",
"}. c #86825A",
"|. c #96865B",
" X c #8A8669",
".X c #968C68",
"XX c #999369",
"oX c #888A77",
"OX c #938C75",
"+X c #9C9475",
"@X c #9D9A7C",
"#X c #999578",
"$X c #8C9273",
"%X c #A19A6B",
"&X c #A59977",
"*X c #B49B73",
"=X c #A8A67B",
"-X c #B4AB7A",
";X c #3D7381",
":X c #377983",
">X c #337480",
",X c #4C7B84",
"<X c #477886",
"1X c #547382",
"2X c #587A86",
"3X c #4F758A",
"4X c #627985",
"5X c #3F828A",
"6X c #47848B",
"7X c #568389",
"8X c #4C8791",
"9X c #538492",
"0X c #588B93",
"qX c #599399",
"wX c #6A8387",
"eX c #768988",
"rX c #698A95",
"tX c #758C94",
"yX c #789496",
"uX c #6C9392",
"iX c #989A87",
"pX c #88958A",
"aX c #A39E87",
"sX c #9AA48A",
"dX c #99A799",
"fX c #8FA189",
"gX c #A9A686",
"hX c #B6AD89",
"jX c #B6B18B",
"kX c #A9AA96",
"lX c #B8B69A",
"zX c #B0B19C",
"xX c #B6BCA3",
"cX c #ABBDA3",
"vX c #C3B789",
"bX c #C6B997",
"nX c #C3BFA2",
"mX c #BEC29A",
"MX c #B9C2AE",
"NX c #C8C5A7",
"BX c #D5CAA9",
"VX c #D2D3B4",
"CX c #DED8AE",
"ZX c #E9EBC7",
/* pixels */
". * = & & & = > 4 4 > t { ~ Z t ~ 7. .~ #.1.u.:. . .:.>X7.,.t.t.0.8.*.=.Q Q U U 9.q.s.s.s.s.>X5X5X5X",
"* $ & = $ & & > = > & r ~ D S Z ..4.6.~ Y $.6.6. .>.5.3.>X6.q.,.0.8.=.=./ / Q U 9.0.9.s.s.s.>X5X5X8X",
"$ $ & & $ $ = > = = - r D S t S ` 5.Y.2.R R +.4.3.e.3.3.,.,.,.;.0.-.&./ =.*.W V / r.r.g.r.r.s.:X5X6X",
"& = = & & * , * * $ , r H Z 0 Z { } 2.K.| ~  .$.3.>.3.<. .^ 7.,.t.r.-.&./ =.&.Q W t.r.r.i.s.>Xf.5Xs.",
"> > , > > , , $ . $ - q d r 0 r r K 5.U.$.^ :.:.,.3.7. .^ G ^ 6.a.;X>Xr.;.&.;.W W t.t.y.;X:X5Xf.0.s.",
"6 > = , , , $ * * * , r q r r Z q 6 Z K.a.>.e.~ ,.:. .^  .;.;.y.i.<X6X:Xr.W W ;.! -.d.,X9X9X6Xs.0.s.",
"5 > , , 5 = $ * * - 0 Z 0 q B S Z > e 1.K.5.1.~  .P ~ 7.:.3.6.>Xp.;X;X5Xr.&.9.g.#.^ T.rX0X6Xd.g.0.0.",
": > , 7 5 = * * * - q Z 7 q 0 F K 8 S %.F.w.2.T P 7.7.7.6.6.3.;Xd.<X<X6X:Xi.<X6XT.$.R.qX7Xd.g.9.0.8.",
"4 4 - * 4 5 , * * 7 Z Z 8 8 G F J ] t %.F.S.5.} K @._ _ { 1.a.d.;X3X:X<XqX:Xd.T.7Xe.e.7XT.g.9.8.8.8.",
"4 - = * - 5 7 , . - F B 0 8 4 G ] t R 1.2.S.+.H @.} S S 4 Y <Xd.;X3X9XqX<X:X7X9XuX%.) e.d.9.9.*.*.8.",
"5 , & & = , 1 7 - = Z 0 0 r 5 0 ] e A X.5.K...G Z S { 6 6 e i.6X<X3X8X8X:X<XqX0XT.U.e.d.q./ =.=.*.*.",
"5 = & & = - , 8 , - 0 q 9 8 7 r ' S D T :.<.G D K ' 6 6 A C ,.;X<XqX3X<X3X9X9X9X7XT.7Xd.Q / =.=./ / ",
", * & = = & = , q 1 ; q I 2 g a d S S F $.%.~ D ' e 6 e R e ( q.e.].].U.2X7X,X9X,X<Xd.^ Q Q =.=./ / ",
"> * & = & . & * 1 9 2 s s a g 3 2 t 0 t ' 1.u.F < < y R t t R %.%.E.T.E.R.2X1X,Xp.;X,.V Q Q W / / / ",
"* & = = & . & & , g W.W.s f V.b.V.h.a H.E.k G.%.m.[.l t m.[ a H.J.].].eXE.R.T.d.p.i.W V V ;.W W / / ",
"& . & & & $ * = . . iXdXs j.aXxXVXc.O pXmXl m.uXVXVXdXi lXZ.u dX$XMXMXdXJ.E.F.T.a.E E U V E E W / 8.",
"* $ $ $ % % $ = :   Q.OXI c.&X_.Q.L u ].mXb v MXcXM.MXZ.@XZ.+ fX+XjX[.J.m.2.J.e.! E Q U A E E ( -.;.",
"$ $ . $ % $ $ = :   N.'.l.l.*Xz O h.l iXmXM M.VXc l V.v lX Xk sX%X=XM.c ].[.J.wXe.( ) U V V W 9.9.;.",
"& & $ . $ = % $ ;   N.'.f h.*X`.Z.k.c sX$X{.B.kXj.].x # lXA.l sXXX=X X X$XZ.V.pX%.R ) E V V ( q.,.;.",
"& $ $ % & % : % w   N.'.; j *XbXxXn.~.gXv @X}.@Xm.dXMX$XmX{.[ MXXX-XgX'.A.+ C.[.O.| ! E / V ^ q.9.;.",
"* % % . % = - : w . b.'.; u iX'.V.b.&X.Xz gX{.%Xn.fXmXjXjX$Xj.fX'.&X Xk W.k.Z./.%.q.W W -.E Y >.-.;.",
"* % . $ = = ; 7 : $ C.Q.X O '.b.v.v.OXCXVXCX{.@Xc.+ {.=X%X{.i gX_.*X# O i [.c.[ R y.>Xq.i.,.A #.;.W ",
"& & * & = - 3 3 7 * C. Xj x XX'.~.j hXgX+XmXB.gX+XA.NXB.}.-Xn bX).+Xm v s 1 < y R q.1X3X;Xy.A R ^ W ",
"& * . > : : 3 3 7 1 V.aXzXOX.XhXNXQ.nXh    XsXM.BXBXmXb v NXBXhXk.lX=X$X%.T e e ) ) U.rX<Xi.A C ( W ",
"1 * * 1 5 : 3 7 B 7 W.~./.V.'.'.pX!.[.l x H.pXs W.iXj.k [ V.iXb.W.oX~.!.E.e.) A ) | 1.U.3X>XW V E &.",
"* ; * * : 7 ; 2 B H u o f h.x @ X O O # l i d h.+ + i f k L + x oX+ + k G.T.2.| $.$.( ,.>X>X,.E E W ",
", * , > , , w w 0 a ~.C.c.W.&X`.N.p # A.+XZ.h.oX$X{.Z.{.[ [ b.OX-X|.M./.J.].oX~.J.e.^ ! W t.i.q.y.>X",
", - * , > 7 7 w r y  XOXc.Q.&XhXCXb B.ZXZXlXx zXZXNXB.lXV.i oXhX-XvX#X~.!.iX@X$XJ.E.,.;.W &.-.,.;X<X",
"- - * ; - : w 0 B a C.'.c.^.#X).k.j bXXXz NX XiXiXM.c mXsXp #X@X&X).A. XZ. Xc {.2.e.g.g.( E ! q.y.;X",
"- * , * 1 7 w B H 2 ~.'.D.Y.aXh X M.jX@ o k.c lXN.X N mXmXN OX@X+Xz @ '.A. Xc k %.d.f.:Xi.;.! #.y.i.",
"- * - , - 5 w B H g C.oXl.W.+X_.N.$XOX+ x h h vX&X`.M =X-XM _..X&XM.N v B.|..XZ.E.f.d.f.;Xy.,.#.y.y.",
"& * - - 1 7 6 0 B 2 Q.OXl.H..XaXgXA.oXp lXNX|.%XCXBXb =X}.%X).XXOXb.l C.B.B.=XsXE.].qX0X<Xy.e.3.^ ;.",
". * , , - 7 7 0 B 0 Q.OXx.H.OXM.p Q.'.j '.&X.X&X Xh b kXN hX+X}.OXk.p '.~.M.b.oX].uXuXqX,Xa.e.$.-.G ",
". * = , : 7 1 9 G 8 Q.#Xh.n.'.m @ k.+Xh X N..X+XM.o k.zXp  XvX). Xz x OX[.OXk.oXpXeXyXqXT.a.1.>.7.^ ",
"% % - 5 7 7 2 ; Z 2 C.&XA.C._.`.C.v._.`.m hXn '.|.).N.gXx v vX`.(.M _..XM.&X#XiX[.[.yXuXU.u.<. .^ ! ",
"- - : : 7 ; ; g 9 2 _.bXlX XXX.XiXv.(.*XvXaXp OXvXbX_.kXx b XX`.|.|.&XN.n  XiXkX!.eXyXyX3X3.>.{ ! E ",
"& - - : 5 7 ; w B I b.Q.n.c.Q.b.n.H.x v.V.x g W.V.V.c.!.k [ b.v.v k.v.i ].n.H.V.^.yXtXrX2X3. .~ ! A ",
"& & = , - 7 7 7 w P l.h.L l.c.h.x.D.s ; % [ l.g g s d y [ %.[ s s s 9 [ 4XpXG.H.tXyXtXrX7XK.T Y ! A ",
"& * = - - : 7 7 q I I l.Y.Y.L.4X4XO.L I d D.l.@.o.%.' [ ' %.z.O.O.} +.X.K.,XrXwXtXtXrX4X2X1X..Y ! Y ",
"% = - - - ; 7 7 0 w q H S.L.Y.Y.G.` t J H L.Y.L O.' ' ] ' O.%.@.+.} T A  .~ 1.2X4XrXrX,X1X,XU.! ~ Y ",
"= = : : - : ; 7 1 r q q ` %.G.2.%.` L H o.Y.P.1XY.D.` +.+.@.@.@.} ] K D _ T  .3.P.2X4XP.1X3XI.,.:.^ ",
": : : : - = - : , 5 w Z t ] +.5.O.L L q P 1XP.P.^.D.@.+.o.@.P o.o.K J J S Z { 1XP.1X1XP.1X1X1Xy.4.>.",
"6 6 6 : 4 6 4 6 8 6 w B G K ..5.J t L q D.L.L.L.L.Y.^.D.<.+.P L o.P S K S D P U.1X4.P.S.R.R.1XI.u.:.",
"C C B C C B B 6 5 6 0 F P } } K r 8 9 7 l.D.L.Y.D.eXeXz.@.P [ L } } _ K K +.P 5.1X7.P.D.1X1X3XI.6. .",
"C C C C C 4 4 4 = 5 8 r H q Z q r 3 1 d l.D.D.L.Y.eXY.L o.o.O.' ] | ] S Z +.D 3.u.} S.L.4X4XY.P.K.X.",
": : : : : : = = > , , 1 7 7 q 9 1 7 q [ D.D.D.1XY.4Xo.I L O.[ o.| T R d q P D 5.<.{ F.I.4X1XP.P.6.{ ",
": : : : = = = = = % * 1 q q 9 7 9 q Z o.L l.^.4X4XY.L L L O.' +.X.{ ] d H H G 7. .P F.R.R.I.S.P.5.D ",
"6 5 : : - = % $ % & * ; q H q 1 1 8 r } @.D.4XtX4XS.o.K [ ' ' ] _ _ L H H G P 7.P P 4.1XR.L.S.I.<.Z ",
"e 6 4 : = $ $ % . $ . * d H 0 5 8 8 } O.z.Y.^.tX^.5.P } ` ` K L J H H H H q } { D P K.1XK.4.Y.L.D D ",
"C 6 = = & $ $ $ . $ $ * H H q 5 6 r @.z.D.Y.^.4XR.S.} ` _ K J J H J H H r q } P F 7.1XK.L.P.1X5.G P "
};
