/* XPM */
static char *e7d9a109cd244a3e9ac3034447589c454hcQV5kbjCASginN[] = {
/* columns rows colors chars-per-pixel */
"50 50 256 2 ",
"   c #191706",
".  c #0A191D",
"X  c #171A1A",
"o  c #0E0C0D",
"O  c #251813",
"+  c #1A231D",
"@  c #192210",
"#  c #26261A",
"$  c #2B2D13",
"%  c #0A1B27",
"&  c #161C25",
"*  c #111931",
"=  c #261825",
"-  c #321C2B",
";  c #0A2528",
":  c #1B262B",
">  c #182728",
",  c #0B2837",
"<  c #1B2B34",
"1  c #142D3C",
"2  c #1B2C3C",
"3  c #172834",
"4  c #1C3135",
"5  c #15323D",
"6  c #1B353C",
"7  c #113333",
"8  c #22232B",
"9  c #282A29",
"0  c #362826",
"q  c #2A3429",
"w  c #37342A",
"e  c #242C33",
"r  c #292B38",
"t  c #352836",
"y  c #233334",
"u  c #24323B",
"i  c #2A3739",
"p  c #343639",
"a  c #423E1A",
"s  c #48182C",
"d  c #453739",
"f  c #4D2E31",
"g  c #6F3336",
"h  c #551321",
"j  c #294938",
"k  c #364539",
"l  c #37422B",
"z  c #174032",
"x  c #484327",
"c  c #474A38",
"v  c #57583A",
"b  c #4E4F31",
"n  c #625836",
"m  c #6B653F",
"M  c #153444",
"N  c #1B3443",
"B  c #1C3944",
"V  c #1C3B4C",
"C  c #17384A",
"Z  c #1B3D52",
"A  c #133B53",
"S  c #0F3245",
"D  c #233B43",
"F  c #243C4C",
"G  c #273945",
"H  c #393A44",
"J  c #243C54",
"K  c #302E44",
"L  c #2C3C60",
"P  c #493B48",
"I  c #51384D",
"U  c #6B324C",
"Y  c #703960",
"T  c #19434B",
"R  c #154252",
"E  c #1C4354",
"W  c #1D445A",
"Q  c #1B4A5C",
"!  c #164959",
"~  c #1A535C",
"^  c #084B56",
"/  c #27434C",
"(  c #374549",
")  c #234354",
"_  c #23455B",
"`  c #234A5C",
"'  c #2A4857",
"]  c #374957",
"[  c #27545B",
"{  c #375558",
"}  c #2F5349",
"|  c #3B6256",
" . c #1D4B64",
".. c #1C5767",
"X. c #0E5D6B",
"o. c #244C65",
"O. c #245263",
"+. c #2C5A6D",
"@. c #265768",
"#. c #355A68",
"$. c #275B73",
"%. c #315D72",
"&. c #314961",
"*. c #186670",
"=. c #286469",
"-. c #3A6A6A",
";. c #286777",
":. c #376877",
">. c #35747C",
",. c #45474A",
"<. c #554849",
"1. c #485855",
"2. c #585857",
"3. c #4C524E",
"4. c #645E47",
"5. c #6C4F55",
"6. c #586557",
"7. c #4E6350",
"8. c #686648",
"9. c #686758",
"0. c #736952",
"q. c #797758",
"w. c #716F4E",
"e. c #575C63",
"r. c #50596B",
"t. c #6E5863",
"y. c #486466",
"u. c #586366",
"i. c #496974",
"p. c #556A76",
"a. c #47747A",
"s. c #547475",
"d. c #686664",
"f. c #776965",
"g. c #697767",
"h. c #7A7A68",
"j. c #696A76",
"k. c #777778",
"l. c #6D7B7B",
"z. c #954130",
"x. c #943955",
"c. c #A03054",
"v. c #8C5056",
"b. c #8B7357",
"n. c #AB6654",
"m. c #90536F",
"M. c #B75373",
"N. c #887978",
"B. c #8E756F",
"V. c #AE706D",
"C. c #DC7E6B",
"Z. c #B55738",
"A. c #50837C",
"S. c #778876",
"D. c #74846E",
"F. c #8B845A",
"G. c #888868",
"H. c #978C68",
"J. c #98946A",
"K. c #878778",
"L. c #989978",
"P. c #8F9279",
"I. c #AA9370",
"U. c #99A27B",
"Y. c #AAA67C",
"T. c #D39262",
"R. c #267785",
"E. c #367A86",
"W. c #336E88",
"Q. c #467B87",
"!. c #507E8B",
"~. c #717783",
"^. c #8E7589",
"/. c #9E5E8B",
"(. c #C66992",
"). c #36838B",
"_. c #358895",
"`. c #3399A5",
"'. c #46868A",
"]. c #488894",
"[. c #568C98",
"{. c #5A959B",
"}. c #548C8F",
"|. c #698589",
" X c #778988",
".X c #6E9594",
"XX c #5394A6",
"oX c #6B96A5",
"OX c #51AFB4",
"+X c #69A3A7",
"@X c #77A6A7",
"#X c #73B2B7",
"$X c #37C4BB",
"%X c #58CABB",
"&X c #66CBBD",
"*X c #52D4CD",
"=X c #71D3D2",
"-X c #6CE4DA",
";X c #6CEDED",
":X c #54E3DC",
">X c #888989",
",X c #8A9A88",
"<X c #999987",
"1X c #909191",
"2X c #A8998C",
"3X c #AC9392",
"4X c #94A693",
"5X c #A4A696",
"6X c #AFAE90",
"7X c #8C9AA3",
"8X c #AB95A3",
"9X c #90B0B0",
"0X c #B9B7A9",
"qX c #AFB1AD",
"wX c #C4938C",
"eX c #DCB289",
"rX c #C8AF93",
"tX c #EABD9A",
"yX c #C7BAB6",
"uX c #CFBAAE",
"iX c #DFA1AE",
"pX c #B5C5B0",
"aX c #9AC0B3",
"sX c #E8C396",
"dX c #CFCCB4",
"fX c #EDCCB1",
"gX c #A2B7C5",
"hX c #DAAAC2",
"jX c #91CED2",
"kX c #AFCFD2",
"lX c #8CE4DE",
"zX c #8FF3F4",
"xX c #A7F6F5",
"cX c #BAFBF9",
"vX c #AEE6E6",
"bX c #A4DBE1",
"nX c #D2D2CD",
"mX c #E8D8D5",
"MX c #EAD4CB",
"NX c #DBE5DB",
"BX c #E8E5D9",
"VX c #FAE7D8",
"CX c #CCDBE3",
"ZX c #DAFAFC",
"AX c #D1ECED",
"SX c #E9E9E6",
"DX c #F9EDE5",
"FX c #ECF3EB",
"GX c #FDF4EC",
"HX c #F8F6EB",
"JX c #EAFCFB",
"KX c #FDFBF5",
"LX c #FEFEFB",
"PX c #F6F8F8",
"IX c #FFE9F6",
"UX c #E1DCE0",
/* pixels */
"5 N N N V C A J o.Z Z Z C S , 1 S S S A ! R ! =.=.=.~ X.^ *.=.=.R.*.$...$.$.W.W.W.E.$X;X$X:X;X;X;X;X",
"C B B C V E W  .o._ o.@. .~ E E R R  . .~ ^ ....=.-.-.y.=.-.i.}.]._.Q.W.$.$.W.XX`.`.;X:X*X;XzXxXzXzX",
"T C R R ^ ! Q  . . .@.;...X...$.$.$.$.R.)._.).A.-..X4X4XqXqX9X@X#X9X#XoX].].].XXXXOX;X*X-XxXxXcXcXxX",
"` ` @.=...~ Q Q @.@.$.;.R.R.R._.;.W.W.E.].XX#X9X5X6XdXdXdXnXnXpX9XkXkXkXjX#X9XjXOX=X-XOXxXcXZXAXZXZX",
"O.[ @.O.` +.+.O.o.o.%.;.).).'.].+X@X9XgXjXjX9XpXsXY.fXfXfXfXdXdXyXnXCXCXCXkXCXAXvXlX-X%XZXAXFXJXJXPX",
"E T E E R ` +.+.#.+.%.:.%.=.#.-.y.#.!.!.XXgXBXdXT.T.sXeXsXfXfX3XB.nXSXSXNXUXSXAXZXcX&XlXJXPXPXKXKXLX",
"T T E ` _ _ _ O.+.:.' t t I t 8 t K &.' [.CXPXuXI.tXeXtXsXtXfXmX0.0XHXFXFXNXBXFXPXZXjXcXJXPXLXJXLXKX",
"T T Z _ ' ' ' &.` N 8 - m.U s - t I ~.r.r.] ^.3XV.T.fXtXeXfXmXGXnX<XKXSXHXFXBXFXPXPXvXbXjXZXJXJXPXKX",
"V J J ' ' ] ' D 3 8 t s /.U - f Y /./.~. X1X3XB.b.V.fXeXI.2XDXBXMX^.mXGXGXHXVXBXIXJXvXjXxXlXcXZXJXPX",
"J J ' J ' ' M 3 2 r t t = K I Y /.(./.wXIXIXGXrXb.wXfXI.a f nXmXMXnXdXIXGXGXHXBXHXPXAXbXzX-X=XzXJXJX",
") ) ' ' _ , 5 ' [ [ #.D 2 - Y m.s c.(.M.iXIXGXVXwXV.rXfX0.O h.MXmXMX>XKXGXHXKXBXFXLXAXoX=X=X:X*XvXbX",
") ' ` ' % 1 #.+.:.;.:.a.i.2 I U s c.M.c.M.iXuXDXVXfXV.MX0Xe.6XDX<XnX3XyXKXGXHXFXSXPXPXp.$.zX:X;XzX>.",
"/ ' ) , M o.#.$.*.R.).>., 1 u.P U c.M.M.x.v.MXGXKX2XU wXuXd.<.5.o ,XmXK.KXKXKXPXmXIXLX|.o.=X;X;XOX).",
"[ ' N M %.+.@.W.;.E.;., , a.oX( s U /.x.(.hXIXGXmXO <.V.B.t u.yX>X2.5XK.SXKXnX8Xk.qXUXj.&.gX;X*X`.$X",
"` ` T %.[ @.=.=.:.%.S R [.@Xi.K v.M.(.g v.iX3X1XdX= P d.p H ~.qXLXBXK.^.HX5X<.<.B.1XyXm.U hXXX).R.`.",
"` W @.O.@.~ ` T 3 1 5 s.9Xa.M p V.I.v.n g V.5.0.yXf ,.K : ,.] ^.SXBXDXqX5Xj.t.t k.f.B.5.Y t.E.X.X._.",
"o.@.+.@.T ; ; > 3 2 S H .X.X{ > ~.^.5.s g 3XuXMXmXN.t p ( 2.,.k.KXBXBXLX>X6.k.= f.9.B.f f ~.XXR.X.#X",
"` W &.&.7 . y > r H 8 . 3.1.; y.j.( I - s wXB.B.MX1XP e.: ( H 2.nXKXBXBXnX2.( 2.8XN.f - 2.7XlXOXOXZX",
") ' L L , ; 9 X r.j.e.d.P ,.y.i.L I r.t = d d w 5.d l.AXj.,.K & 2.MXVXnXSX7X= yXf.d d 0 ^.>X'.+XxXzX",
"' J L J M > i 8 ~.qX>Xf.B.N.p 8 r W.^.= O d w k.0 & 4XFX8Xr r 8 <.2XVXDXgXt.2.CXd.0 = - N.5X6 '.lX-X",
"T / J 2 < e : X 2.nXmX3Xb 5.v.f = * qXI = I <.~. X( nXBX1.* u & 9 f.BXdX1X( 1.CX.Xu.d 0 B.2.y =.=X*X",
"6 / 1 * : H 2.i 2.^.mXMXf h v.z.s = 3X/.o I & y.i.l.nXnX1.& X & r 5XBXdX1XH = 7XkX X0 d 0.9 ; z OX=X",
"D 5 % ; G ] K r.j.7X^.8X<.s g M.h h z.V.s P r.1.i.9XyXdX2.# 0 d c 2.pXnX Xi p e.9XkXt.<.2.+ 7 ; A.jX",
"y * , N ( H % !.~.7XqX~.,.5.h n.M.Z.z.C.V.,.l.oX@XqXyX2X9.w f 4.0X,XkX9Xy.i ( 9 9XqXP 2.p.{ + 7 z .X",
"> & 2 2 K 3 H 7X~.G ] 4 ] 3.- v.C.C.T.T.eX0.&.W.a.A.qXqXf.# f.6XyXnXkX.X{ y.3.9 2.d.<.j.i.i.. > ; j ",
"& 8 % G u % H u > % . . G p I f z.Z.T.T.eXn i.!.].A. X5XH o P yX1X} 9X#X-.9Xy.} P I t.P [ 7 : X + y ",
"< G 8 r t X y X 9 > . & : r P t h a n.I.b.0 Q.oXXX].].}.{ . X e.4X[ %XA.{.aX+XS.t.5.<.o : : X 8 X # ",
"F ' u & 8 8 # i : 9 i : : r 8 K = 0 d <.<.: r.[.W.).).].i.; % 2 -.| {.{.+X+X#X@Xe.2.w X X X 8 & 8 > ",
"o.` < & X = q : < ( H r > X r K 8 r H p i > V W.>.*.=.>.>.5 ; G ' [ '.*.+X[.{.'.H r q # O = X > 4 > ",
"o.W < > & r y > ( G G . q q X t d p H G ,.p B { | =.} [ =.) ; ( { } >.).}.[.@X#.D i k # O r } |.|.|.",
"Z B 6 ; 4 G : e G G y X q.G.o 2.6XrX3.9 6Xn o 9.pX0Xv .XA.{ P.G.rX4X-.A.'.|.|./ i y : > 2 &..X@X9X#X",
"D D > 7 6 D : y / ( >   n b.  2.I.w.c p rXw.  pXL.F.U.U.A.| Y.I.J.v j s.s. Xy.4 i y e : V {.@XoX{.oX",
"u u 3 D 6 B > > > & > o b q.# d.D.$ l 7.6XF.a 6X$ l l S.A.7.U.F.m @ m D.K.S.( : 9 9 e 3 :.+X{.{.[.!.",
"N N 2 D B B 7 % . : > X 4.q.o u.6X6Xk D.G.F.D.L.j S.D.4XA.| U.J.Y.D.m m K.g.( ; + : 8 6 Q.].[.[.XX].",
"C N N F B i > ; > 3 3 y 0.D.. 7.<Xq.z 4Xw.U.U.D.7.6XpX6XA.| Y.J.P.3.8.D.h.g.( ; + : 6 [ ].E.Q.].[.Q.",
"C C F / B B 6 < % % F i 9.h.+ 6.b.$ l 6XdXdXJ.J.$ l 4XU.D.7.U.J.x # 7.6.3.y.{ i y < T '.E.;.W.Q.!.Q.",
"V V F J N J ) Z J _ ) i 8.H.F.b.I.I.m 6X| D.L.H.Y.rXP.7.6X6XJ.F.J.q.} } y.i.{ 6 i > =._.;.;.%.:.:.%.",
"J C N V V ) ' ) _ _ E u 4.H.G.m H.Y.F.D.z 1.4Xx Y.U.l l J.Y.v D.J.q.( y.{ #.#./ u 5 ).R.R.*.$.%.%.o.",
"C C N D G / T ) _ A A T k q 4 y $ @ q 7 j j y k $ q j j j j | } 0 $ i ( { ( { D < / ].R.R.......+.@.",
"M M F G ) / / T V V A M l.l.7 y.4X4X} 7.kX,Xj 4XpXS.S.A.j S.4X4XD.w k S. X1./ ; % ' E.E.X..... .O.Q ",
"S F F F F / J B C M T 6 6.h.> y.<XJ.v dX<XpXP.,XpXD.U.U.j 4XU.J.H.w.c K.S.u.F 3 & ] W.$.$.W.A !  ...",
"C M C Z Z J V V G N T 7 6.D.> 7.b.  m U.  a v <Xl @ J.sXk U.J.b.a w.q.4.q ( F 3 : { %.o. .o. ...@.$.",
" .o.o.o. .A E ) V M N 4 6.h.> 7.J.F.H.w.a m a Y.Y.F.F.Y.D.F.J.D.k 6.0.I.w.x H 3 u ,.&.o.W Q @.$.%.+.",
" . .o. .! W A V M M 5 > 8.G.> 1.H.b.q.n 8.dXI.J.rXm F.D.J.J.J.q.l g.a n 6X4.p * N ] L &.Z W @.O. .Q ",
" . .Z A C M M 1 5 B 4 ; 6.D.# 1.9.  m b.O x H.G.l @ P.v J.Y.D.8.l S.8.  b K.8 % u ] J J Z Z o.O. ...",
"@.Q V C M M M N B 5 5 7 4.<Xd.g.b.4.x H.8.<X0.G.S.6.U.7.v Y.q.w.G.G.8.G.h.k.. * 6 ] J Z C Z J  .O.~ ",
"! C M N N M V _ A S A B 6.6X<X9.P.P.c c 2X2Xq S.6XP.D.7.3.S.g.h.K.3.l S.5X,.% % 1 / / V V Z A o.o.Q ",
"T C V C V ) E E A  .Q ) k 0 9 q $ q 9 9 q @ 4 7 q l j } | i k w q p j 9 0 9 & * % F V C V Z _ o._ Z ",
"R E Z V E E Z E W Q  .E 6 e < 2 e < 4 4 < 4 6 1 2 D ~ =.[ / D D G ( G e u e & * u F J S V o.o._ Z V ",
"W E E E V C Z C E ! ~ E C 2 1 2 2 1 5 5 5 5 N 5 V E ~ *.~ E T / ) ) N 3 2 e * K G F F C Z _ Z Z E Z "
};
