/* XPM */
static char *_b4d3ead31d549688f81725ef418e568wONDpvLm8S8pUvkV[] = {
/* columns rows colors chars-per-pixel */
"70 70 256 2 ",
"   c #06030C",
".  c #140302",
"X  c #141212",
"o  c #2F0D0D",
"O  c #362716",
"+  c #2C1726",
"@  c #322C2E",
"#  c #141D2D",
"$  c #581619",
"%  c #4B1111",
"&  c #691619",
"*  c #6A2A15",
"=  c #5B1C25",
"-  c #471922",
";  c #681D25",
":  c #711C28",
">  c #4D2C2D",
",  c #682527",
"<  c #772526",
"1  c #78353A",
"2  c #702D35",
"3  c #4E452E",
"4  c #705632",
"5  c #6F5010",
"6  c #2F3048",
"7  c #213756",
"8  c #49384A",
"9  c #763844",
"0  c #364E6E",
"q  c #2A4367",
"w  c #514B50",
"e  c #6B5155",
"r  c #585B79",
"t  c #4E5371",
"y  c #586673",
"u  c #6E6973",
"i  c #666061",
"p  c #3D402D",
"a  c #86282A",
"s  c #8A2A32",
"d  c #972B34",
"f  c #8A3539",
"g  c #983539",
"h  c #942F2D",
"j  c #A82C35",
"k  c #AD2C35",
"l  c #941C29",
"z  c #905706",
"x  c #976917",
"c  c #AD7206",
"v  c #906F34",
"b  c #AA6F32",
"n  c #8F5733",
"m  c #8C3945",
"M  c #AE3B47",
"N  c #D63D53",
"B  c #904E4F",
"V  c #B24854",
"C  c #917371",
"Z  c #97664C",
"A  c #CF4A57",
"S  c #EC566A",
"D  c #DA5261",
"F  c #C1283C",
"G  c #7F8271",
"H  c #BC8608",
"J  c #B09334",
"K  c #9D8332",
"L  c #C48C08",
"P  c #C9950B",
"I  c #D39B0B",
"U  c #CA9816",
"Y  c #D39B16",
"T  c #C88C19",
"R  c #D9A718",
"E  c #D8A610",
"W  c #E5AF19",
"Q  c #CB9925",
"!  c #D0992D",
"~  c #D9A926",
"^  c #D7AB38",
"/  c #DBB338",
"(  c #CFA82C",
")  c #E6B62A",
"_  c #E8B936",
"`  c #E5AE2D",
"'  c #ECC43A",
"]  c #F3C63A",
"[  c #F7CA35",
"{  c #B0974D",
"}  c #B9A45A",
"|  c #948C77",
" . c #AFA67C",
".. c #9D8F64",
"X. c #DAB857",
"o. c #D0AE4A",
"O. c #E7BB51",
"+. c #CEB66D",
"@. c #CFA552",
"#. c #EBC547",
"$. c #F5C946",
"%. c #FAD349",
"&. c #F6CA57",
"*. c #FCD757",
"=. c #EAC658",
"-. c #DCC372",
";. c #F0CE6C",
":. c #F1D960",
">. c #3A5B84",
",. c #515D86",
"<. c #596689",
"1. c #5A6997",
"2. c #53708C",
"3. c #646987",
"4. c #66748A",
"5. c #626B97",
"6. c #697696",
"7. c #757999",
"8. c #7C7486",
"9. c #587AB6",
"0. c #5172B0",
"q. c #6678A5",
"w. c #667BB3",
"e. c #655F81",
"r. c #577CC0",
"t. c #B1788C",
"y. c #8E7D8B",
"u. c #D8708A",
"i. c #708499",
"p. c #5D82B2",
"a. c #7887A9",
"s. c #6886BB",
"d. c #748FB7",
"f. c #5D829D",
"g. c #5D83C3",
"h. c #6A8AC4",
"j. c #738DC5",
"k. c #7696C9",
"l. c #7399D0",
"z. c #5DA4DC",
"x. c #4CA4D4",
"c. c #61A5DE",
"v. c #6CABDE",
"b. c #68A7DB",
"n. c #78A9DA",
"m. c #7AB2DD",
"M. c #79A8D0",
"N. c #5EA4E3",
"B. c #5BA8E7",
"V. c #5FACF2",
"C. c #62A6E2",
"Z. c #64A9E3",
"A. c #6CABE3",
"S. c #6BACE9",
"D. c #67A8E7",
"F. c #72ADE4",
"G. c #77ADE5",
"H. c #6BB1E6",
"J. c #74B1E4",
"K. c #7DB4E3",
"L. c #76B3EA",
"P. c #6FB3F2",
"I. c #639FE8",
"U. c #908F94",
"Y. c #AC9588",
"T. c #B3A690",
"R. c #8998B9",
"E. c #949BB8",
"W. c #8891A9",
"Q. c #95A3BB",
"!. c #95A6B0",
"~. c #B0ACB2",
"^. c #A698A8",
"/. c #C2AA96",
"(. c #CAB599",
"). c #C6A989",
"_. c #C9B6A7",
"`. c #D3BBA9",
"'. c #CEBDB6",
"]. c #D68EA8",
"[. c #D5CD92",
"{. c #E8D890",
"}. c #F5E694",
"|. c #D9C5B6",
" X c #D1CDAF",
".X c #E4DBA9",
"XX c #ECE6AD",
"oX c #869AC7",
"OX c #8C9DCA",
"+X c #98A7C6",
"@X c #86A9D6",
"#X c #85B2DC",
"$X c #8BB5DC",
"%X c #8BB7DA",
"&X c #95BBDD",
"*X c #9BBCDC",
"=X c #95B6D8",
"-X c #91A7D1",
";X c #A6ACC8",
":X c #A6BBD7",
">X c #AEB3CC",
",X c #83B5E3",
"<X c #84B9E4",
"1X c #8DBAE3",
"2X c #8AB8E7",
"3X c #92BCE3",
"4X c #98BDE4",
"5X c #91B4EB",
"6X c #A2BCE2",
"7X c #B69AC7",
"8X c #C4BEC6",
"9X c #9DC2DD",
"0X c #A4C2DD",
"qX c #ABC6DC",
"wX c #B8C9DA",
"eX c #BBD3DC",
"rX c #B3C9D4",
"tX c #9CC2E4",
"yX c #99C3E9",
"uX c #91C3EB",
"iX c #A3C5E3",
"pX c #AAC5E3",
"aX c #ADCBE4",
"sX c #A7C9E9",
"dX c #B3CDE3",
"fX c #BBCDE4",
"gX c #B2CDEA",
"hX c #BBCCE8",
"jX c #B4D1E4",
"kX c #BCD2E3",
"lX c #B9D3EB",
"zX c #A9CAF2",
"xX c #B6D5F4",
"cX c #B0D0EC",
"vX c #C6CBD9",
"bX c #C8D4DB",
"nX c #D4D8D9",
"mX c #D2D0C8",
"MX c #E7D9C7",
"NX c #E5E4CF",
"BX c #C3D4E4",
"VX c #CAD5E3",
"CX c #CDDAE4",
"ZX c #C3D4EB",
"AX c #CCDBEA",
"SX c #C8D7E9",
"DX c #D2DBE4",
"FX c #D2DDEA",
"GX c #D7DAE6",
"HX c #C8D9F2",
"JX c #C8D3E8",
"KX c #D8E2EB",
"LX c #D9E5F5",
"PX c #CCE1F3",
"IX c #E6E7F0",
"UX c #DCE1DB",
/* pixels */
"C.C.c.C.C.C.C.C.I.N.N.N.N.N.N.N.N.N.N.z.N.N.N.z.N.N.z.N.B.C.N.N.N.z.S.V.N.B.V.N.I.A.z.B.H.D.z.A.C.Z.v.n.5X4XgXhXwXJXFXLXIXGXnXIXVXJXGXIXGXnX",
"C.C.C.Z.D.C.C.C.C.N.N.N.I.N.N.N.N.N.N.N.N.N.N.N.N.N.N.N.N.B.Z.Z.S.S.N.C.Z.Z.V.H.D.S.B.B.D.V.D.C.S.D.D.G.G.@X1X3X-X6X6XgXZX:XvXGXIXGXnXvXvXJX",
"A.C.Z.C.D.C.C.C.C.N.N.I.N.N.I.N.B.N.N.N.N.N.N.N.N.N.N.N.C.Z.Z.C.N.S.B.C.H.v.x.B.D.I.B.D.V.S.P.D.D.D.D.A.A.A.A.v.v.G.#X@X5X=X6XZXLXJXvX:X;X-X",
"c.C.A.C.C.C.C.C.C.C.C.C.I.N.N.N.N.N.Z.N.N.N.N.z.C.C.C.B.D.C.D.S.Z.H.N.C.J.J.H.P.P.V.N.Z.D.Z.C.D.A.A.A.D.Z.Z.D.S.C.A.A.n.n.@X@X5XHXHXHX6X#X@X",
"I.b.c.c.c.c.N.c.C.C.c.B.B.N.N.N.N.N.B.N.N.C.N.C.C.Z.C.Z.Z.D.Z.A.P.I.5X6X;X7X^.7.M.L.P.c.b.c.z.S.C.D.A.F.F.A.A.A.S.A.F.A.A.F.n.,X4XpXzXsX$X#X",
"c.c.I.c.I.c.C.c.Z.Z.Z.C.B.N.N.N.N.N.C.N.z.c.B.z.C.C.c.Z.Z.Z.Z.S.I.@X7X].u.S A M t d.J.Z.v.A.B.S.S.G.S.F.F.G.G.G.G.F.F.A.S.S.D.F.n.n.G.n.v.v.",
"c.c.c.c.c.c.c.c.Z.C.C.C.C.N.N.N.Z.B.N.B.Z.Z.B.C.D.Z.Z.v.v.A.A.Z.@X7Xu.S N S S S 9 r k.H.H.H.P.A.S.S.F.F.F.F.F.G.F.F.F.F.F.A.F.A.F.D.Z.D.A.D.",
"I.c.C.C.b.I.C.c.C.C.C.N.C.C.N.N.B.Z.Z.Z.N.Z.v.B.Z.Z.Z.S.A.A.F.n.2X7Xu.N S S S M ].u p.m.b.b.L.F.A.A.A.F.A.F.J.J.F.A.A.A.A.F.n.b.v.A.n.F.F.l.",
"z.c.z.c.z.z.c.B.B.B.S.V.Z.Z.B.N.Z.C.C.c.C.Z.Z.v.H.Z.Z.S.S.S.Z.@X;Xt.D S S N S k l ].w.l.S.S.S.H.H.J.H.A.A.F.F.L.P.A.F.J.n.n.F.F.G.G.F.v.b.H.",
"Z.z.Z.c.c.v.c.Z.C.Z.Z.C.Z.D.S.S.S.S.D.C.H.H.H.H.b.J.F.b.S.F.A.$X7XV D S D N k N l D a.s.G.G.F.F.v.J.L.L.G.G.L.L.L.F.F.L.F.F.G.@XzXxXgXtX#X@X",
"Z.Z.C.Z.Z.H.v.Z.H.A.Z.A.Z.v.A.J.A.Z.A.A.A.A.A.c.b.J.F.A.G.G.m.=Xt.V D D N N F A k V U.s.,XD.L.H.A.J.J.L.G.J.J.L.F.Z.S.G.G.G.5X5XGXGXLXVXrX:X",
"Z.Z.Z.A.Z.Z.Z.Z.A.v.v.A.H.A.Z.S.A.H.A.m.H.A.F.J.L.v.S.L.S.F.#X-X6 9 D D M d M k F l t.6.2XD.L.J.H.A.A.J.J.L.m.H.v.n.v.m.M.1XpXBXvXnXGXGXDXDX",
"c.v.v.Z.A.H.H.A.v.F.c.v.H.H.Z.H.H.H.J.F.v.J.L.L.L.A.G.L.n.2X&Xa.W.B M M 9 > > - s $ y.2.L.S.K.K.m.J.<X<Xm.m.m.K.#X$X1X3X*XdXVXGXnXvXvXGXIXIX",
"v.H.v.F.H.J.v.m.2X2Xm.M.m.J.A.L.A.F.J.v.F.A.F.L.<XK.<XK.n.xXfX8.8Xy.u.: o @ w @ m $ C 4.<XJ.2XyX#XtXcXsX&XM.m.uX3XiXlXHXAXGXIXUXvXrX~.rXnXKX",
"v.v.F.G.m.J.m.m.zXxXiX-X%X3X$X1Xm.<X1X1X$XK.K.m.G.<X2XK.3XlX;Xu 7XC m = ^.IX'.- m : u 6.,X2XsXxX0XdXAXHXaX&XK.uX4XdXFXIXGXIXUXnXvX>X~.>X8XJX",
"J.J.n.m.m.m.m.#XgXHXfX:XaXlXhXaX:XiXgXdXsXtX1X2X2XuXK.K.yX-X7.w e C B e mXIX7X- m ; i 5.@X5XpXHXfXbXGXLXHXiX<X,X=X0XGXKXGXGXGXnXvXwX>XvXvX>X",
"m.m.K.L.J.K.,X@XtXpXpXqXSXCXvXGXbXVXDXGXGXGXHXZXlX0X1X,X2X+Xe B m D V = W.~.u - 8 U.8 t *X3XsXzXpXpXfXZXZXsX3X#X1XtXsXgXhXBXvXvXvXbXVXGXnXvX",
"#XK.K.K.K.K.2X3X3XiX=X=XdXkXBXAXGXGXKXGXGXGXGXJXFXhXxX4X=X+X8 e V A V 2 w w 2 @ e i.p y 9XuX<XK.2X3X&XtXyX3X,X#X,X$X$X=X*X0XwXBXbXVXGXGXnXGX",
",X2X1X3X$X1X<X1X3XyXiX:X:X0XpXxXJXJXVXVXVXVXvXvXbXVXHX0XaXQ.> B A j M M s 1 m 1 i 8.@ y 0X1X1X2X<XK.K.,X,X,X,X1XyXuX1X,X%X&X0XfXvXBXCXCXGXGX",
"$X4XpXgXdXqX*X%XiXxXPXJXdX:X*X6X6XpXpXiX:XqX:XpX:XdXgX0XHX>X> B V j k M M M g , e y # 2.0X$X1XuX<XK.K.,X,X2X5X5XzX5X1X2X#X@X=X*XqXqXvXBXVXbX",
"=XcXAXAXCXAXBX:XfXPXIXLXAXrX9X%X&XtXuXuX4X4X4X6X&X*X9X9XHXnX9 s M k j h j g , 2 w w # 6.hX9XuX<X<X<X<X,X<X2X$X&X3X1X,X,Xm.m.M.9X*X0XqXdXhXkX",
"=XaXkXvXbXAXJXwXwXVXVXnXDXAXqX9X%X%X%X1X4X4X4XyXyX%X9X9XBXIXt.: A j j M h h 2 > 3 p   !.LXlXcXtX%XuX<XK.<X2X1X#XuX<X<X2X#Xv.v.m.#X@X*XiXaXaX",
"&XtXiX0X:XqXpXqXqXwX>XrXeXPXxX9X9X&XtXtXtXtX4XtXyXtX&XpXwXIX].: V j j M j h ; O @ @   !.IXKXIXHXiXtX$X$XuXtXtX3X3X1X3X4X=XM.M.uX#X#X$X$X3X4X",
"uX3X5XsXiX&X4XiX0X0XqX:XqXlXcX9XiXsXsXsXtXtXtXtX4XxX&X*XqXvXy.2 V k j h a f - o X @   ~.UXvXGXLXlXgX:X&X0XhXxXsX4X4XdXBXwX:X0XsX4X3X1X1X$X3X",
"yXyXiX4XyX4XtXyXtXtXtX4XuXyX9X9X0XqXhXhXjXaX9X9XsXyXuXsXtX;X+ 9 V M j d l < , . O #   >XwXwXbXKXbXBXpX4XtXaXjXeX>XbXKXFXGXvXbXZXsXtX$X$X2X1X",
"iXyXtXiXtXtXtXtX4XtXtXtX9XyXyX9X0XaXgXlXaXiX9X9XsX9XuXsXcX!.  2 M j h h a : $ . X p # +XcX9XjXdXqXiXyXyXyXyX0X0XeXSXKXDXGXvXnXVXBXhXdX:X=X=X",
"6XiXiXiXiXiXiXiX0XtXtXtX9XiXiXtXtXsXaXsXiXyX9X9XiX9XsX9XxX2.  e f h a a < , - X # 0 7 f.cX9XaXgXiX9XtXyXyXtX&X9XtXlXBXvXnXrXvXAXDXGXFXBXwX:X",
"sXiXpXiXpXiXiXiXiXiX0XiXsX9XsXiXaXsXsXsXiXyXsXsX9XsXcXsXsX0 # y > $ $ $ & , o + 7 0 0 2.jXeXCXKXBXkXwXfXdXaX9X9X%XtXaXqXwX+X:XhXbXbXDXSXBXBX",
"pXgXpXaXpXaXaXaXpXaXaXaXqXsXaXsXaXaXaXiXiXsXsXsXiXjXaXcX%X7 2.y - $ % $ $ , o @ y q 2.>.pXLXnXIXKXKXIXKXGXKXhX*X&XtX4X6X:XR.&XtX0XqXqXdXdXkX",
"aXaXaXdXaXdXaXdXpXaXaXqXaXaXaXaXcXaXaXaXaXaXaXcXaXxX9XxXb.q p.q > a : ; : 1 + w f.>.p.0 R.LXCXVXnXGXnXnXGXLXPXfXsXtX=XpX:XOXaXiX:X0X:X0X0XiX",
"dXdXdXdXdXdXdXaXaXaXaXaXaXaXaXaXcXaXaXaXaXcXaXcXaXaX9XlXd.0 p.# , d < l : 2 + r f.f.2.t U.DXJXJXvXbXvXvXvXGXKXFXdX0X*XgX:XR.BXfXeXkXkXdX0X9X",
"dXdXdXdXdXgXdXjXjXaXjXaXjXjXjXjXaXaXaXjXjXcXjXaXrXrXrXPXi.f.f.7 = g a a l 2 + 4.f.f.y | /.NXGXGXGXAXJXvXvXvXnXCXkXqXaXlXOX7.wXvXbXCXDXSXrX:X",
"qXdXeXjXjXjXeXjXjXjXjXjXjXjXjXjXlXjXjXcXxXcXeXrXeXbXXX.X!.2.2.@ , f d s < % @ 7.d.y { X.:.}.XXNXKXAXVXAXHXeXbXUXnXVXfXHXW.2.qXfXwXbXKXKXBXvX",
"kXeXjXeXeXeXjXjXeXjXjXjXjXjXjXjXjXjXeXjXjXjXjXeXNXXX}.}.T.4.2.# , g d s & % w 7.u G } [ %.*.:.}.XXmXbXeXkXkXBXCXFXSXBXHXW.6.qXfXeXbXFXKXFXCX",
"eXBXeXBXjXkXkXkXlXeXBXkXjXkXeXPXlXeXeXeXeXlXlXnX{.:.:.}.T.f.2.# > m s a : % r 7.i  .:.*.] #.%.*.:.{. XrXwXlXZXZXHXZXBXAXd.a.lXwXrXbXbXbXbXCX",
"kXbXBXkXkXbXbXkXBXBXBXlXBXBXBXlXBXlXlXeXeXeXBXmX:.:.*.:.} | i.6 = g a a : % u i.i [.=.*.*.:.*.*.:.;. XrXrXhXhXhXlXjXeXbXa.W.lXaXjXqXeXeXkXeX",
"BXBXBXBXkXBXkXBXBXBXBXPXlXeXBXBXBXlXPXjXeXeXmX.X;.:.:.:.X...u q $ h a a : % e.u ..;.#.*.*.*.%.%.%.:..XrXeXeXkXdXaXlXBXeX7.R.ZXjXaXqXqXqXqXaX",
"BXBXbXBXBXkXCXkXBXBXBXjXPXBXBXBXBXBXZXZXeXmXXX.X:.:.*.:.O.{ i w % < h a l = 3.w } :.=.:.%.%.[ [ [ :.[.mXeXeXkXlXjXlXPXfX6.OXlXrXdXqXaXaXaXaX",
"VXVXBXVXkXCXCXBXBXBXBXBXBXBXBXeXBXBXBXBXBXbX X{.=.*.*.$.#.} 3 y > < g a a 2 3.w } ;.&.*./ #.] $.[ %.-. XmXkXjXkXeXSXHX:X0 R.PXjXdXdXdXjXjXjX",
"CXVXCXCXCXCXCXCXCXBXCXCXBXCXBXCXPXBXeXCXAXbX.X;.;.%.#.' $.} @ y e , g d g , y t X.*.$._ P [ [ [ %.' :.[.mXkXlXlXbXbXwXR.7 d.lXHXdXlXjXjXjXaX",
"bXVXVXCXVXAXCXCXCXCXCXCXCXCXCXCXBXCXCXCXPXUX{.=.#.#.%.' ' ^ 3 @ > 2 s l g f u w +.&._ [ _ _ [ [ ' #.X..XbXHXSXBXZXHX0X,.1.,.:XPXkXkXkXeXkXeX",
"CXCXDXCXCXnXCXDXCXUXCXbXCXeXeXCXCXCXCXCXeXUX{.X.=.$.[ ' [ { 3 + = : h h g 9 u i -.%._ ' ] ` [ _ ' ' o..XbXZXBXBXBXkXd.r 1.,.Q.kXSXkXkXBXkXkX",
"DXDXKXDXCXCXCXCXCXCXCXDXCXCXCXCXCXCXbXCXCXmX{.o.#.' ' ' %.@.> # % 1 g d V 9 i i -.#._ ] _ ` ) ) W ) o.{.nXSXBXSXAXvX<.<.5.,.a.kXBXBXBXkXBXvX",
"CXCXCXCXCXCXCXCXCXPXCXCXCXKXPXUXCXAXCXCXPXNX{.o./ ' ' ' %.@.p + = g g d g f w i -.&._ %._ W ) ) ) R ( [.NXAXBXSXPXwXr 4.3.r i.BXBXAXVXBXBXBX",
"FXFXFXFXCXKXCXCXCXCXCXCXCXCXCXCXKXDXCXCXAXNX;.( / _ ' ' %.} p @ $ d d d M 9 w C -.%.] $._ Y ` ` R R ( -.MXAXSXAXAX>Xt <.<.r 7.ZXAXAXSXVXBXCX",
"VXSXSXSXCXCXAXKXKXCXKXDXCXCXUXDXCXKXCXCXPXNX{.( / ' %.$.%.J @ # = d g d M m > i -.#._ $.` Y Y W R U R X..XnXVXFXSXE.t ,.t t 4.JXFXAXAXVXCXbX",
"qXaXdXdXjXhXeXkXBXBXCXCXCXDXKXCXCXPXCXCXPXNX-.( ) ' %.#.&.J p @ , g g M g m > e =.$._ $.` I R ` E I E / .XnXCXFXVXi.t t t t 3.BXAXCXCXCXCXCX",
"$X$X&X4X9XtXiXsXcXaXjXjXjXBXlXeXCXUXUXCXCXNX;.U ~ ' ' #.#.{ @ @ , h f d d m > 4 -.$.$.$.` L R W I P E ( {.MXnXFXGX4.,.t <.t 3.fXAXAXCXVXCXVX",
"-X-X@X@X5X1X@Xn.3X2X1X$X*XpXdXlXlXhXSXbXkXMX#.E ( / %.' %.K @ @ f f 4 , m M $ n ;.$._ $.R E P ) E P E ^ X.XXUXLXeXf.,.2.,.t 6.JXPXKXCXCXbXCX",
"@X$X,X@X@X@XM.l.l.M.#X@X@X,X@X&X*X0XjXqXeX X#.W R ) %.#.#.K @ @ 2 2 > > s m $ n &.$.$.] R E I R E P R ( o.}.NXPXeX4.,.<.<.t 7.JXKXAXCXCXCXKX",
"l.n.@XoX@XOX@X@Xj.M.n.l.M.b.h.m.@X@X=X=X9X XX.E E ) %.%.=.v O @ 9 2 > @ f m & n ;.O.$._ Y E Y R R P Y ( / {.NXLXrX4.<.<.5.r W.FXLXKXCXAXCXCX",
"j.j.s.j.k.k.-X-Xj.OXoXh.l.l.g.n.n.M.l.d.Q. X#.E E ) %.#.=.v O > e 2 > - 1 M & b O._ $.) I W W R Y P E R ( :.NXPX~.5.2.<.5.,.W.LXKXKXCXKXKXCX",
"l.j.9.w.h.j.@XoXd.j.j.s.k.k.s.l.%X@Xl.s.R. X/ W E / [ #.=.5 O @ 1 , O O 4 g & V O._ $.` E W ) W P P W W R X.XXjXOX5.1.<.5.<.W.LXKXKXUXLXLXBX",
"l.j.9.s.h.d.k.j.s.s.h.h.j.k.s.h.M.n.l.d.!.[._ E U / [ ' :.5 O > 1 < = = g g & b &.$.] Y E R ~ ~ P H W ) W o. X!.a.5.5.1.1.<.!.KXKXKXDXLXkXOX",
"s.s.w.oXoXoX-Xk.d.j.k.j.h.h.s.h.h.l.k.d.!.[./ E P / ) ' X.5 X + m d s s j h & b &._ _ L U Y Y ! Q c P W ) ) [.a.q.5.5.1.q.2.R.CXKXKXHXLX:X1.",
"q.7.7.;X;X+X>X+XOXR.oXd.w.9.p.s.s.s.p.i.!.-./ I U / ) [ X.5 O @ , s s d h l % b &.$._ L Q Y Y ^ ! c H E W ' (.i.6.5.5.<.0.1.R.SXSXHXHXLX-X>.",
"a.a.R.E.R.E.;XQ.E.oXoXoXw.q.w.w.9.0.0.,.Y.-.^ P H ) ~ &.X.o O o ; s s s < < o b O.$.` T Y R ` ` Q c H P ~ / -. .4.q.5.5.5.,.OX4X6XzX6XoXj.0.",
"R.OX;X+XR.R.Q.Q.;XE.OX:XoXq.d.OXh.w.r.<. .-./ R P ) ~ &.} o @ o : < < a < * o v &.$.~ Y ~ ~ ) ` T z c T ~ ( X. .4.q.5.e.5.1.oXl.@X5X5Xr.0.0.",
":X>X+XR.R.+X;X+X;X>X;X;X+X+X;XOXR.j.k.i. .-./ P P ~ ~ &.{   > X , < a a < & o n ;.#.~ Q ( ( ( ` T z c T L H ^ ).u 0.5.1.1.1.j.9.r.5X5X0.r.0.",
">X>XE.W.R.Q.W.W.W.;X:X>X+X+X>X>Xd.d.R.W.-.X.~ P P ~ ~ :.K . @ o , < a < < * o v &.O.Y Q J K J ^ x z c ~ R E Q @.u q.5.<.q.1.s.0.g.6X5Xr.r.0.",
"~.vX8X8X8X8X~.7X!.E.E.+X+X+XE.E.W.q.R.U.+.o.~ I P W ' :.v . @ . = < a a < < o b ;.` U J { ..K @.K z z T W _ ) @.C 5.5.4.6.1.s.9.j.5X@Xr.h.r.",
"_.'.'.`.|.MXmX'._.~.~.E.;XQ.y.3.3.3.w.^.+.o.^ P H ~ ' =.4 . 3 . = < < < a < o b &.~ U J  .Y.{ } (.Z z c c Y W O.U.3.3.6.q.1.s.r.l.j.0.0.l.r.",
"|.`.`.`.`.|.`.).T.'.mX~.U.W.3.r r t a.^.-.O./ L L ~ ) X.4 . @ . % , , < < < o n =.( P J U.T.{ } /.C n H T L L ^ Y.<.<.5.q.5.9.s.j.r.0.0.l.g.",
"_._.|.mX'.'.`.Y.).)./._.'.^.3.,.r t 7.T.-.^ ` P H ` ` o.3 . 8 . % $ & < ; & o v X.( U J | U.{ @.T.e 5 T Y R I o.Y.y r 5.q.0.g.9.h.w.r.r.I.g.",
"`.'.|.|.|.(.).`.|.|._.Y./.'.^.t t q y.y.+._ R H H ~ ~ o.O # @ . $ < ; ; < ; o n ~ U Q J ....{ } T.| * c ` E W `  .<.<.5.1.w.h.h.h.j.OXh.r.g.",
"'.|.|.|.`././.`.|.|.|./.Y._.'.~.8 6 7.^.+._ ) H c / / J . + @ . % , : < < & % h ^ P ( Q J { J } ~.U.* c ! E W ^ | 3.<.5.5.w.j.j.oXoX@Xj.r.g.",
"`.|.|.|.(./.(.|.|.'.`.`.| /.'.8X^.u y.~.;./ ) c c O.^ K . # @   o $ ; < < * % z ! Y I Y Q ! Q @.T.~.4 x T I W ( Y.r <.7.7.a.OXOXoXOXOXj.g.j.",
"|.`.|.`.).). X|.|.`./.(.C ).)./.'.U.8.^.-.` _ P z ^ ^ v X 6 @ . o % = ; , $ % * @.Y I U U Q Q } U.~.4 x ! R E ^ | r <.5.7.R.6X6X5X-X@Xj.s.j.",
"`.`.`.`.T.(.|.|.`.`.]. .Z Y.).|.|.|.U.T.;._ ` L z ! o.v X 6 + . o - = ; $ $ % % ! ! Y P U Q ! { U.~.v x ! R I o.| e.<.5.7.R.+X:X6X-XoXR.oXR.",
"|.`.`.). .(..X(./.`.).C .././..X~._.U.Y.-.^ ~ T z ! o.5 X 6 @ . % % ; $ * $ % % ! ! Y U Y Q ! { W.+X4 b Y Y I O.| r e.7.7.W.OXOX;X;XR.oXoXOX"
};
